<svg viewBox="0 0 101 61" xmlns="http://www.w3.org/2000/svg" role="img"><path d="M42.1336 32.3903H49.2095V37.6287H42.6965C42.3994 35.9828 42.2006 34.2247 42.1336 32.3903ZM56.4327 17.4475C55.1596 14.8654 53.6252 13.2734 52.0505 12.6694V21.4353H57.9136C57.5004 19.9601 57.0068 18.6106 56.4327 17.4475ZM58.5635 24.2936H52.0505V29.532H59.1264C59.0594 27.6998 58.8606 25.9372 58.5635 24.2936ZM42.1336 29.532H49.2095V24.2936H42.6965C42.3994 25.9372 42.2006 27.6998 42.1336 29.532ZM43.3464 40.4847C43.7596 41.9577 44.2532 43.2937 44.8273 44.459C46.1004 47.0411 47.6348 48.66 49.2095 49.2663V40.487H43.3464V40.4847ZM42.281 16.1834C42.7188 15.2965 43.2124 14.4792 43.7462 13.727C39.9783 15.2449 36.82 17.9729 34.7607 21.4353H40.387C40.8761 19.511 41.5149 17.7372 42.281 16.1812V16.1834ZM49.2095 21.4353V12.6694C47.6348 13.2712 46.1004 14.8654 44.8273 17.4475C44.2532 18.6106 43.7596 19.9601 43.3464 21.4353H49.2095ZM40.387 40.4847H34.7473C36.8089 43.956 39.9716 46.6886 43.7485 48.2087C43.2147 47.4565 42.721 46.6257 42.2833 45.7388C41.5149 44.1783 40.8761 42.4157 40.3892 40.4847H40.387ZM39.7929 24.2936H33.3826C32.755 25.9372 32.353 27.6998 32.2122 29.532H39.2881C39.3484 27.7177 39.5159 25.9596 39.7906 24.2936H39.7929ZM39.2903 32.3903H32.2145C32.353 34.2247 32.7572 35.9828 33.3848 37.6287H39.7951C39.5181 35.9581 39.3506 34.2112 39.2926 32.3903H39.2903ZM61.9697 29.532H69.0455C68.9071 27.6998 68.505 25.9372 67.8752 24.2936H61.4649C61.7396 25.9596 61.9094 27.7155 61.9674 29.532H61.9697ZM57.5138 13.727C58.0498 14.4792 58.5412 15.2942 58.979 16.1834C59.7473 17.7394 60.3861 19.5132 60.873 21.4375H66.4993C64.44 17.9752 61.2817 15.2471 57.5138 13.7292V13.727ZM100.63 30.96C97.3847 34.941 90.3111 42.9164 80.8788 49.6884C72.3824 55.7845 61.954 60.96 50.63 60.96C39.306 60.96 28.8753 55.7845 20.3812 49.6884C10.949 42.9164 3.87534 34.9387 0.630005 30.96C3.87534 26.979 10.949 19.0036 20.3812 12.2316C28.8776 6.1355 39.306 0.959991 50.63 0.959991C61.954 0.959991 72.3847 6.1355 80.8788 12.2316C90.3111 19.0036 97.3847 26.9813 100.63 30.96ZM71.9469 30.96C71.9469 19.1428 62.3851 9.53046 50.63 9.53046C38.8749 9.53046 29.3131 19.1428 29.3131 30.96C29.3131 42.7772 38.8749 52.3895 50.63 52.3895C62.3851 52.3895 71.9469 42.7772 71.9469 30.96ZM61.4649 37.6264H67.8752C68.5028 35.9806 68.9071 34.2225 69.0455 32.388H61.9697C61.9094 34.209 61.7419 35.9559 61.4671 37.6264H61.4649ZM60.873 40.4847C60.3839 42.4135 59.7473 44.1783 58.979 45.7388C58.5412 46.6257 58.0476 47.4588 57.5138 48.2087C61.2884 46.6886 64.4534 43.9583 66.5149 40.4847H60.8752H60.873ZM59.1264 32.3903H52.0505V37.6287H58.5635C58.8606 35.9828 59.0594 34.2247 59.1264 32.3903ZM52.0505 40.4847V49.264C53.6252 48.6578 55.1574 47.0389 56.4327 44.4567C57.0068 43.2936 57.5004 41.9577 57.9136 40.4825H52.0505V40.4847Z"></path></svg>