<svg viewBox="0 0 104 99" xmlns="http://www.w3.org/2000/svg" role="img">
<path d="M51.9978 95.7384C66.2424 95.7384 79.7509 96.7543 91.7914 98.5064C95.2826 83.969 99.3463 75.6995 103.707 69.7373L95.5753 66.823C96.4578 71.0374 96.4578 72.9315 95.5753 75.5445C94.2753 74.2359 92.9666 71.7735 91.9507 68.123L88.1797 81.3517C90.5086 79.7589 92.3941 78.5837 94.5723 78.5837C90.8013 86.7155 86.1564 88.7474 83.0957 88.1619C79.471 87.4516 77.719 84.1068 78.3044 81.3388C79.1869 77.2837 83.2421 76.2677 85.1362 80.9083C88.7608 73.5084 82.6523 71.1708 78.5972 73.3534C84.7057 67.2449 85.4203 61.7175 80.4741 55.1914C73.6509 60.4304 73.5046 65.6521 76.703 73.0607C72.6479 68.4201 66.5394 70.8824 68.7176 78.4503C71.632 73.9431 75.403 76.6982 74.8261 81.059C74.3741 84.83 69.4495 87.7228 63.3495 87.2924C54.628 86.5562 54.2018 80.4692 53.8962 75.3766C56.0744 74.9462 59.8497 76.9694 63.1903 81.6358L64.3526 67.6753C60.8614 71.4464 57.5294 72.1825 53.8919 72.3418C55.0542 68.5707 60.5772 62.3116 60.5772 62.3116H43.2977C43.2977 62.3116 48.8208 68.5707 49.9831 72.3418C46.3369 72.1954 43.1514 71.4593 39.5224 67.6753L40.6847 81.6358C44.0296 76.9694 47.8006 74.9505 49.9788 75.3766C49.6732 80.4692 49.2427 86.4228 40.5255 87.2924C34.4169 87.8778 29.6257 84.83 29.0488 81.059C28.4634 76.8446 32.2473 73.9431 35.1574 78.4503C37.3356 71.0288 31.2271 68.5664 27.1719 73.0607C30.2111 65.6607 30.2111 60.4347 23.4009 55.1914C18.4633 61.7304 19.1779 67.2535 25.2778 73.3534C21.3475 71.1751 15.1142 73.4997 18.7388 80.9083C20.6372 76.2677 24.6924 77.2837 25.5706 81.3388C26.156 84.1068 24.4083 87.4473 20.7578 88.1619C17.7186 88.7474 13.078 86.7155 9.29408 78.5837C11.4508 78.5837 13.2028 79.746 15.6867 81.3517L11.7564 68.123C10.7405 71.7692 9.5782 74.2316 8.13178 75.5445C7.2493 72.9358 7.39566 70.8781 8.13178 66.823L0 69.7373C4.36077 75.6909 8.4159 83.9561 11.9157 98.5064C24.1155 96.7543 37.6111 95.7384 52.015 95.7384"/>
<path d="M4.05069 60.0141C7.11141 61.3141 10.5897 59.8677 11.9027 56.8156C13.2027 53.7549 11.7563 50.2637 8.70419 48.9636C5.64347 47.655 2.16518 49.2477 1.00288 52.3084C-0.44353 55.2013 1.00289 58.7011 4.04208 60.0097"/>
<path d="M14.6665 44.0194C17.7057 45.3281 21.2055 43.873 22.5055 40.8209C23.8142 37.7602 22.3721 34.2819 19.3071 32.969C16.2679 31.6689 12.7681 33.2746 11.6058 36.3138C10.1593 39.3745 11.6058 42.8528 14.6665 44.0151"/>
<path d="M30.6286 34.4431C33.6893 35.7431 37.1676 34.2967 38.4806 31.2446C39.7806 28.1839 38.3342 24.7056 35.2735 23.3927C32.2343 22.0926 28.756 23.6768 27.5937 26.7375C26.1473 29.6303 27.5937 33.2765 30.6329 34.4388"/>
<path d="M55.1837 15.2648L62.7386 19.1951V7.98972L55.1837 10.4736C54.8995 10.168 54.7532 9.88814 54.4475 9.73748L57.3619 0H46.4621L49.5013 9.5782C49.2172 9.88384 48.9159 10.0302 48.791 10.3143L41.2361 7.98542V19.1779L48.791 15.1013C49.0751 15.4069 49.2215 15.6867 49.5013 15.9837L45.1405 29.1866C45.0071 29.9227 44.8564 30.4953 44.8564 31.2185C44.8564 34.8646 47.4651 37.7704 50.81 38.2095H52.8418C56.1867 37.624 58.7954 34.7183 58.7954 31.2185C58.7954 30.5082 58.6619 29.772 58.5113 29.1866L54.1505 15.9837C54.581 15.8374 54.8866 15.5317 55.1664 15.2476"/>
<path d="M99.7856 60.0141C96.7249 61.3141 93.2466 59.8677 91.9337 56.8156C90.625 53.7549 92.08 50.2637 95.1322 48.9636C98.1929 47.655 101.671 49.2477 102.833 52.3084C104.142 55.2013 102.833 58.7011 99.7943 60.0097"/>
<path d="M89.1698 44.0194C86.1306 45.3281 82.6308 43.873 81.3308 40.8209C80.0221 37.7602 81.4642 34.2819 84.5292 32.969C87.5684 31.6689 91.0682 33.2746 92.209 36.3138C93.677 39.3745 92.209 42.8528 89.1698 44.0151"/>
<path d="M54.3223 55.7759C51.2616 57.0846 47.7833 55.6425 46.4703 52.5774C45.1616 49.5382 46.6167 45.8921 49.6688 44.7384C52.7295 43.4297 56.2078 45.0225 57.3701 48.0574C58.6701 50.9717 57.3701 54.4629 54.3309 55.7587"/>
<path d="M73.2073 34.4431C70.1466 35.7431 66.6683 34.2967 65.3553 31.2446C64.0553 28.1839 65.5017 24.7056 68.5538 23.3927C71.6145 22.0926 75.0928 23.6768 76.2551 26.7375C77.7015 29.6303 76.2551 33.2765 73.2159 34.4388"/>
</svg>
