<!-- <svg xmlns='http://www.w3.org/2000/svg' class='icon-size' viewBox='0 0 98 96'>
  <path fill-rule='evenodd' clip-rule='evenodd' d='M48.854 0C21.839 0 0 22 0 49.217c0 21.756 13.993 40.172 33.405 46.69 2.427.49 3.316-1.059 3.316-2.362 0-1.141-.08-5.052-.08-9.127-13.59 2.934-16.42-5.867-16.42-5.867-2.184-5.704-5.42-7.17-5.42-7.17-4.448-3.015.324-3.015.324-3.015 4.934.326 7.523 5.052 7.523 5.052 4.367 7.496 11.404 5.378 14.235 4.074.404-3.178 1.699-5.378 3.074-6.6-10.839-1.141-22.243-5.378-22.243-24.283 0-5.378 1.94-9.778 5.014-13.2-.485-1.222-2.184-6.275.486-13.038 0 0 4.125-1.304 13.426 5.052a46.97 46.97 0 0 1 12.214-1.63c4.125 0 8.33.571 12.213 1.63 9.302-6.356 13.427-5.052 13.427-5.052 2.67 6.763.97 11.816.485 13.038 3.155 3.422 5.015 7.822 5.015 13.2 0 18.905-11.404 23.06-22.324 24.283 1.78 1.548 3.316 4.481 3.316 9.126 0 6.6-.08 11.897-.08 13.526 0 1.304.89 2.853 3.316 2.364 19.412-6.52 33.405-24.935 33.405-46.691C97.707 22 75.788 0 48.854 0z' fill='currentColor'/>
</svg> -->


<svg class='icon-size' viewBox="0 0 41 40" fill="none" xmlns="http://www.w3.org/2000/svg">
  <path d="M20.3557 0C9.09955 0 0 9.16663 0 20.507C0 29.572 5.83039 37.2453 13.9187 39.9611C14.9299 40.1653 15.3004 39.5198 15.3004 38.9769C15.3004 38.5015 15.267 36.8719 15.267 35.174C9.60454 36.3965 8.42538 32.7295 8.42538 32.7295C7.51539 30.3528 6.16706 29.742 6.16706 29.742C4.31373 28.4857 6.30206 28.4857 6.30206 28.4857C8.35788 28.6215 9.43663 30.5907 9.43663 30.5907C11.2562 33.714 14.1883 32.8315 15.3679 32.2882C15.5362 30.964 16.0758 30.0474 16.6487 29.5382C12.1325 29.0628 7.3808 27.2974 7.3808 19.4203C7.3808 17.1795 8.18913 15.3462 9.46996 13.9204C9.26788 13.4112 8.55997 11.3058 9.67246 8.48788C9.67246 8.48788 11.3912 7.94455 15.2666 10.5929C16.9258 10.144 18.6369 9.91563 20.3557 9.91371C22.0745 9.91371 23.8266 10.1516 25.4445 10.5929C29.3203 7.94455 31.039 8.48788 31.039 8.48788C32.1515 11.3058 31.4432 13.4112 31.2411 13.9204C32.5557 15.3462 33.3307 17.1795 33.3307 19.4203C33.3307 27.2974 28.579 29.0286 24.0291 29.5382C24.7707 30.1832 25.4107 31.4053 25.4107 33.3407C25.4107 36.0907 25.3774 38.2978 25.3774 38.9765C25.3774 39.5198 25.7482 40.1653 26.7591 39.9615C34.8474 37.2448 40.6777 29.572 40.6777 20.507C40.7111 9.16663 31.5782 0 20.3557 0Z" fill="currentColor"/>
</svg>