<svg class="site-header-image" id="site-logo" xmlns="http://www.w3.org/2000/svg" viewBox="0 0 39.86 60" aria-labelledby="title-logo desc-logo" role="img">
  <title id='title-logo'>{{ site.fullName }}</title>
  <desc id='desc-logo'>{{ site.fullName }} icon</desc>
  <path id="background" class="header-image-background" d="M39.59,28.78c0-.42-.04-.97-.31-1.54-.12-.24-.27-.46-.46-.64l.52-3.84c.15-1.1.09-2.15.03-3.06l-.07-1.32c-.04-.81-.1-1.68-.38-2.6-.11-.37-.25-.69-.44-1.11-.05-.11-.1-.23-.15-.35-.35-.88-.74-1.67-1.19-2.4l-.05-.08c-.15-.25-.33-.55-.59-.88-.08-.58-.22-1.2-.52-1.83-.45-.92-1.02-1.77-1.7-2.53-1.18-1.31-2.27-1.61-2.92-1.78-.07-.02-.13-.03-.18-.05-.09-.1-.19-.23-.29-.37-.38-.57-1.01-1.38-2.02-1.94l-2.07-1.14-1.03-.54c-.83-.43-1.66-.69-2.57-.78-.92-.09-1.61.22-1.98.38-.02.01-.05.02-.08.03-.32.02-.63.02-.97,0l-1.07-.08-.82-.1c-1.05-.13-2.88,0-4,.28-.61.15-1.17.41-1.65.75-.46.33-.99.59-1.7.84-1.3.45-2.4,1.08-3.35,1.91-.5.44-.87.88-1.23,1.32l-.82.99c-.26.32-.37.37-.81.62-.22.13-.47.27-.76.45-.81.52-1.39,1.28-1.72,2.26-.27.81-.18,1.54-.05,2-.32.58-.5,1.18-.54,1.83-.04.61-.24,2.23-.36,2.8-.36,1.67-.53,3.41-.7,5.08l-.2,1.89c-.06.55-.06,1.14-.01,1.85l.03.45c.06.79.19,1.53.31,2.17.03.14.06.29.1.46-.34.34-.58.74-.71,1.19-.18.59-.17,1.25.01,1.84l.3.93.03,1.03c0,.33.03.78.15,1.25l.52,2.25c.07.29.15.58.24.87l.64,1.96c0,.05-.02.12-.03.21-.03.17-.06.36-.08.59-.03.33-.13,1.33.42,2.3.23.41.52.75.86,1.01l.61,2.57c.6,2.41,1.41,4.24,2.54,5.73l1.33,1.79c.29.41,1.78,1.79,1.98,1.95l1.49,1.21c.72.59,1.44,1.06,2.2,1.44l1.12.55c1.01.5,2.12.83,3.31.97.61.08,1.27.14,2,.14h.6c2.67-.03,5.51-.21,8.29-2.12.93-.64,1.77-1.32,2.48-1.91.54-.45,1.04-.95,1.56-1.57l.19-.23c.09-.11.17-.21.28-.31.31-.31.51-.62.67-.87l.29-.44c.26-.39.51-.77.74-1.18.57-1.04,1.02-2.08,1.37-3.19l.07-.21c.23-.73.48-1.48.63-2.34l.44-2.51c.57-.46,1-1.08,1.22-1.78.25-.81.18-1.55.09-2.06v-.05c-.03-.49.03-1,.09-1.47l.26-1.85.72-4.01c.2-1.17.15-2.19-.14-3.12Z"/>
  <g id="foreground" class="header-image-foreground">
    <path id="head" d="M37.78,29.35c-.04-.13-.11-.23-.1-.39.02-.3.02-.62-.11-.89-.17-.35-.69-.26-.77-.35-.02-.02-.03-.1-.02-.15l.32-2.49.37-2.6c.14-.98.06-1.94,0-2.93l-.03-.45-.03-.65c-.03-.72-.08-1.43-.3-2.13-.14-.46-.36-.87-.54-1.31-.3-.74-.63-1.43-1.04-2.11-.21-.34-.4-.67-.68-.96-.09-.1-.15-.21-.17-.35-.07-.57-.15-1.13-.4-1.65-.37-.76-.84-1.46-1.4-2.08-1.27-1.41-2.17-1.04-2.82-1.57-.29-.24-.51-.52-.72-.84-.37-.54-.79-1.02-1.37-1.34l-2.04-1.12-1.03-.54c-.59-.31-1.21-.51-1.88-.57-.69-.07-1.13.37-1.59.41-.47.04-.92.04-1.38,0l-1.17-.08s0,0,0,0l-.82-.1c-.84-.11-2.45.02-3.31.24-.36.09-.7.24-1,.45-.68.49-1.39.81-2.18,1.09-1.01.35-1.92.84-2.72,1.54-.39.34-.69.71-1.02,1.1l-.83,1c-.68.82-1.09.88-2,1.46-.47.3-.77.75-.95,1.28-.14.41-.07.82.08,1.22.13.34-.03.69-.21.98-.22.37-.34.74-.37,1.16-.05.69-.26,2.4-.4,3.06-.42,1.95-.58,4.12-.79,6.07l-.08.7c-.05.5-.04,1,0,1.51l.03.45c.05.67.16,1.31.28,1.97.07.38.2.76.22,1.14,0,0,0,.01,0,.02-.06.18-.18.41-.17.61,0,.02,0,.03-.02.04-.3.18-.58.37-.68.72-.07.22-.07.5,0,.73l.3.95c.05.15.09.34.09.5l.03,1.03c0,.29.03.58.1.87l.3,1.26.22,1.01c.05.24.12.47.19.7l.63,1.96c.2.63.05.88-.02,1.56-.04.41-.02.82.18,1.17.2.34.46.59.84.68.02,0,.03.02.04.04l.22,1.06.57,2.3c.44,1.79,1.1,3.57,2.22,5.05l.77,1.02.58.8c.12.17,1.41,1.41,1.64,1.59l1.49,1.22c.58.47,1.18.87,1.84,1.21l1.12.56c.85.42,1.75.67,2.7.79.63.08,1.23.13,1.85.13h.5c2.63-.03,5-.25,7.23-1.78.82-.56,1.58-1.17,2.34-1.81.49-.41.91-.84,1.32-1.32.19-.23.36-.45.57-.66.2-.2.34-.43.49-.67.31-.47.62-.91.89-1.41.5-.92.91-1.85,1.23-2.85.25-.77.49-1.5.63-2.3l.59-3.34s.01-.03.03-.03c.51-.2.93-.61,1.1-1.15.14-.44.08-.9.01-1.35,0,0,0,0,0,0-.05-.65.01-1.27.1-1.92l.27-1.93.4-2.15.32-1.84c.13-.75.15-1.51-.08-2.24h0ZM4.1,38.15c-.24-.61-.48-1.46-.6-1.98l-.13-.58c-.1-.44-.2-.87-.33-1.31-.15-.5-.18-1-.17-1.53.01-.38-.07-1.07-.19-1.41-.2-.55-.51-1.24.06-1.63.02-.02.06,0,.07.02.18.37.55.43.84.66.01.01.02.03.02.05-.06.22-.08.42-.09.65l-.04.59-.08,1.14c-.03.45-.03.9.02,1.35.05.46.25.86.46,1.27,0,0,0,.01,0,.02l.03.55.08.85c.04.45.1.85.13,1.28,0,.05-.07.07-.09.02h0ZM35.25,31.09c-.11,1.45-.44,2.87-1.03,4.2-.24.55-.66,1-1.14,1.32-1.08.73-3.34.79-4.61.74-.65-.03-1.27-.05-1.9-.22-.58-.15-1.12-.35-1.57-.74-.44-.38-.76-.81-1.04-1.32-.36-.66-.64-1.31-.86-2.03-.33-1.04-.59-2.3-.01-3.31.41-.71,1.16-1.05,1.95-1.21.96-.19,1.9-.29,2.88-.36,1.75-.12,3.78-.06,5.51.29.3.06.6.18.86.33.82.47,1.05,1.41.98,2.31h0ZM5.91,24.06l.45-.75c.14-.24.37-.5.36-.81-.02-1.05-.58-2.27-.62-3.34l-.02-.64c-.05-1.31.77-2.65,1.57-3.65.52-.65,1.03-1.28,1.61-1.88.12-.13.31-.27.47-.31.56-.13,1.6.31,3.62-.21,1.17-.31,2.28-.69,3.41-1.12.84-.32,1.68-.48,2.57-.61l.48-.07c.66-.09,2.04.03,2.75.12,1.04.13,2.54.48,3.53.81l1.01.33c.67.22,1.3.47,1.95.76.68.31,1.32.71,1.86,1.22.46.43.79.95,1.15,1.45.47.66.78,1.85.84,2.65.03.39.04.78,0,1.17l-.07.78-.04.59c-.04.67-.23.97.26,1.68.35.5.68.97.98,1.51,0,0,0,0,0,0,.4.9.65,1.82.71,2.81l.07,1.06s-.02.05-.05.05l-1.18-.15c-.21-.03-.43-.03-.61-.06-.02,0-.03-.02-.04-.04-.13-.59-1.47-1.48-1.94-1.76-.69-.42-.98-.57-1.78-.55l-1.01.03-1,.07-.74.04-.93.04-1.09.03c-.33,0-.64.13-.94.24-.48.19-.92.46-1.2.91-.07.1-.13.33-.12.45.02.46.39.68.81.64l.55-.05.56-.08.81-.12.38-.06.87-.12.42-.06c.38-.06.74-.1,1.13-.14l.78-.07.6-.02c.55-.02,1.11.13,1.62.33l.08.03s.03.09-.02.09h-.05c-.69-.03-2.98.01-3.64.1l-2.18.27c-.46.06-.88.22-1.32.35-.57.17-1.03.51-1.39.99-.33.44-.3.32-.98.29l-.67-.03c-.32-.02-.65-.03-.95,0l-.65.07c-.29.03-.43.01-.67-.29-.52-.66-1.02-.79-1.81-1.02-.68-.2-1.35-.26-2.06-.31l-1.4-.09c-.13,0-.26-.01-.38-.01h-.72s-1.45.03-1.45.03l-1.04.04s-.07,0-.1.01c-.05,0-.08-.07-.03-.09.35-.16.7-.3,1.08-.35l.57-.07c.44-.05.88-.04,1.33-.01l.53.03c.19.01.39.02.58.05l.95.12.41.06.73.07c.23.02.44.06.67.07.37.03.73.13,1.12.09.2-.02.4-.26.4-.47,0-.21-.08-.44-.2-.61-.5-.72-1.28-1.08-2.15-1.12-.64-.03-1.27-.06-1.91,0l-.34.03h-2.7c-.47.01-.88,0-1.3.29-.43.29-.83.61-1.2.98-.35.36-.68.69-.9,1.15,0,.01-.02.02-.03.03l-1.05.16c-.3.05-.58.1-.89.11-.02,0-.03,0-.04-.02-.05-.08.02-.2.01-.28-.06-1.37.26-2.69.96-3.86h0ZM17.97,31.53c-.04,1.17-.34,1.98-.8,3.04-.36.83-1,1.79-1.78,2.28-.71.46-1.55.63-2.39.72l-.75.07h0l-.93.04c-.18,0-.36,0-.54,0l-.97-.07c-.62-.05-1.13-.16-1.69-.4-.63-.27-1.1-.7-1.45-1.29-.86-1.47-1.32-3.12-1.4-4.82-.02-.53.1-1.01.38-1.45.15-.24.36-.39.61-.52.27-.13.52-.28.82-.35,1.05-.25,2.1-.33,3.18-.39.72-.04,1.4,0,2.13,0,1.29.02,2.56.1,3.8.48.34.11.68.21.95.44.65.54.91,1.41.84,2.23h0ZM4.66,41.76c-.31-.18-.41-.74-.38-1.03l.08-.61s.05-.1.06-.08c.01.01.05.06.05.08l.07.45.06.39.12.75s-.03.07-.07.05h0ZM26.99,49.58l-.79.82-1.07,1-.77.47c-.18.1-.33-.06-.48-.13l-.47-.24c-.17-.09-.46-.19-.47-.44,0-.12.06-.32.11-.43l.29-.7c.11-.27.54-1.19.03-1.35-.31-.1-.63.05-.94.06l-1.12.05c-.8.03-1.59.04-2.39,0l-.41-.02-.92-.03c-.1,0-.17-.01-.27.05l-.11.06s-.02.02-.02.03c-.04.24-.03.5.04.72l.19.56.27.8c.04.13-.02.25-.04.35-.06.24-.24.35-.45.47-.36.2-.66.16-.94-.1l-2.16-2.11c-.13-.14-.42-.07-.37-1.1.02-.35.05-.69.12-1.04l.09-.48s0,0,0,0l.1-.42s0,0,0,0l.07-.14s.07-.03.09,0c.04.15.13.27.3.29.32.03.63-.07.95-.09l.65-.03.63-.04c.85-.06.66,0,1.38.04.37.02.71.06,1.07.12.19.03.38.09.57.1,1.32.07,1.1-.04,2.19-.11.53-.03,1.05-.1,1.58-.05.91.08,1.84.07,2.76.05.07,0,.18-.13.19-.2.02-.21-.34-.25-.51-.25l-1.14-.02h0l-.45-.03c-.65-.05-1.54-.08-2.17,0-.21.03-.4.05-.62.05-.12,0-.23.04-.34.05-.5.08-1.03.09-1.54,0-.17-.03-.33-.07-.5-.07-.06,0-.17-.06-.23-.06l-1.32-.11c-.25-.02-.5-.02-.75,0l-.56.04-.85.04-.43.02c-.22,0-.42.1-.66.08-.04,0-.06-.05-.03-.08.25-.29.57-.48.9-.68l.51-.31c.32-.19.67-.34,1.03-.48l.95-.36.76-.25c.67-.22,1.1.14,1.27.16.28.03.63.04.91,0,.45-.06,1.01-.29,1.41-.18l.43.13.28.09.34.1c.23.07.45.16.67.25.53.23,1.07.42,1.55.75.28.19.6.33.82.58l.31.34c.07.08.09.18.13.28.03.09.27.52.37.83l.1.31.09.31c.1.34.16.66.23,1.01.03.17-.21.36-.4.63h0ZM35.45,37.58l-.11.47-.09.44-.12.58-.18.82-.1.43-.08.32-.36,1.42c-.18.71-.55,1.31-.93,1.93-.15.25-.32.43-.5.65-.15.18-.3.37-.44.56-.21.27-.43.5-.66.75l-.26.29s0,0,0,0l-.88.87c-.23.23-.48.47-.76.63-.16.09-.32-.03-.42-.11-.17-.13-.21-.31-.21-.53,0-.57-.03-1.3-.19-1.84l-.11-.37c-.16-.55-.64-1.18-1.09-1.53-.56-.43-.93-.63-1.53-.97l-1.14-.64-.5-.29c-.3-.18-.59-.36-.87-.58l-.21-.17h0s-.55-.36-.55-.36c-.02,0-.03-.01-.05-.02-.32-.15-.61-.23-.98-.27,0,0-.02,0-.02,0l-3.53.02h-.04c-.23.01-.58.17-.73.29,0,0-.01,0-.02,0l-.64.32-.49.39c-.62.48-1.7,1.13-2.41,1.48-.43.21-.84.42-1.21.71-.74.57-1.18,1.33-1.33,2.25-.02.12-.08.27-.08.38-.03.44-.05.84-.18,1.26,0,0,0,.02-.01.02-.1.09-.24.22-.34.28-.17.1-.36-.05-.46-.14l-.2-.18-.25-.21c-.05-.04-.1-.08-.14-.11h0l-1.22-1h0l-1.8-1.88s0,0,0,0l-.25-.3c-.17-.2-.46-.96-.55-1.24l-.28-.8-.21-.65-.1-.31c-.04-.12-.08-.24-.12-.36l-.26-.96-.08-.28-.12-.44-.09-.41c-.03-.14-.08-.3-.1-.43l-.1-.65-.06-.51-.06-.47-.12-1.04c0-.05,0-.11,0-.18-.03-.43-.02-.85.02-1.28l.1-1.01s.07-.06.09-.01c.01.03.03.07.04.1l.27.99c.2.76.5,1.45.88,2.13.3.54.63,1.01,1.11,1.42.08.07.17.19.27.24.36.21.72.37,1.13.47.7.18,1.38.29,2.09.32l.65.03c.17,0,.33,0,.49,0l1.03-.03c.67-.02,1.72-.25,2.37-.48.43-.16.81-.38,1.18-.65,1.36-1,2.22-3.18,2.66-4.77.11-.41.35-.91.72-1.13.41-.24.87-.31,1.33-.12.38.15.71.46.86.9l.34.95c.2.56.4,1.1.68,1.62.28.52.55,1.01.88,1.49.49.72,1.48,1.35,2.31,1.59.49.14.99.24,1.52.26.78.04,1.54.03,2.32,0,1.13-.04,2.51-.28,3.54-.77.89-.42,1.35-1.17,1.72-2.05.12-.29.23-.54.32-.84l.3-.97s.05-.07.07-.06c.02,0,.05.05.06.07l.13.61c.02.11.04.25.05.36l.02.48c.01.23-.02.33-.03.43h0l-.09.49-.11.45-.1.44-.22.98h0ZM37.27,32.03l-.06.35-.33,1.71-.14.79c-.07.37-.11.73-.16,1.11l-.1.72-.1.69-.12.99c-.05.38-.04.78,0,1.16l.09.81s0,.01,0,.02c-.08.36-.21.72-.55.94-.03.02-.08,0-.07-.04l.29-2.04.22-1.63.09-.59.08-.67.08-.92.3-1.56h0c.02-.09.04-.19.04-.28.04-.88-.02-1.74-.15-2.62,0-.05-.18-.6-.28-.71-.01-.01-.02-.03,0-.05.14-.3.56-.49.89-.59.02,0,.05,0,.06.03.22.7.06,1.71-.06,2.4h0Z"/>
    <g id="nostrils">
      <path id="nostril-left" d="M17.69,38.97c-.22-.04-.51.12-.53.36-.01.13.18.27.3.31.4.1.6.09.75.09.12,0,.2-.12.14-.23l-.14-.27c-.05-.09-.13-.16-.23-.19-.09-.03-.19-.05-.29-.07h0Z"/>
      <path id="nostril-right" d="M22.49,39.67l.67-.03c.21,0,.49-.21.49-.42,0-.28-.33-.35-.56-.34-.22,0-.44.1-.64.22-.05.03-.1.09-.11.15l-.05.17c-.04.13.06.26.2.26h0Z"/>
    </g>
    <g id="pupils" class="header-image-pupils">
      <path id="pupil-left" d="M12.25,31.98c-.55-.12-.89-.54-.99-1.07-.1-.5.13-1.02.55-1.33.31-.24.92-.26,1.25-.13.66.27.99.95.78,1.65-.19.65-.89,1.03-1.59.88h0Z"/>
      <path id="pupil-right" d="M28.21,31.71c-.5.24-1.08.16-1.47-.18-.39-.34-.56-.89-.4-1.41.21-.69.91-1.01,1.6-.85.53.13.9.58.97,1.09.07.55-.18,1.09-.7,1.34h0Z"/>
    </g>
  </g>
</svg>