<svg class="site-header-image" id="site-logo" viewBox="0 0 39 61" xmlns="http://www.w3.org/2000/svg" aria-labelledby="title-logo desc-logo" role="img">
  <title id='title-logo'>{{ site.fullName }}</title>
  <desc id='desc-logo'>{{ site.fullName }} icon</desc>
  <path id="head" d="M38.789 29.7945C38.7428 29.6492 38.6745 29.5426 38.6864 29.3757C38.7098 29.0492 38.7085 28.7003 38.5677 28.4091C38.3844 28.0297 37.8233 28.1297 37.7326 28.0324C37.7075 28.0054 37.7026 27.9232 37.7088 27.8747L38.0543 25.178L38.453 22.3624C38.6034 21.2993 38.5201 20.2557 38.4558 19.1828L38.4267 18.6974L38.3959 17.9938C38.3618 17.2123 38.3097 16.4469 38.0766 15.687C37.9245 15.1907 37.6903 14.7487 37.4979 14.2633C37.1787 13.4585 36.8196 12.7118 36.3706 11.9755C36.1428 11.6016 35.9387 11.2445 35.6318 10.9353C35.5294 10.8321 35.469 10.7094 35.4513 10.559C35.3789 9.94237 35.2881 9.33605 35.0159 8.77135C34.6176 7.94513 34.113 7.18979 33.5039 6.51031C32.1313 4.97904 31.1597 5.37865 30.4567 4.80798C30.1387 4.54995 29.9047 4.24019 29.6746 3.90055C29.2802 3.31834 28.8226 2.79054 28.1968 2.44595L25.9973 1.23453L24.8846 0.651085C24.2443 0.31536 23.581 0.10329 22.8563 0.0284787C22.1058 -0.0490122 21.6402 0.43036 21.1347 0.46993C20.6311 0.509293 20.1458 0.510736 19.6451 0.474258L18.3809 0.38234C18.3809 0.38234 18.379 0.38234 18.3782 0.382134L17.4918 0.270432C16.5846 0.15605 14.8463 0.294339 13.9159 0.527636C13.5281 0.624912 13.1576 0.783603 12.8342 1.01669C12.1009 1.54532 11.3296 1.89877 10.474 2.19596C9.38694 2.57331 8.39619 3.10957 7.53334 3.86861C7.1168 4.23504 6.78401 4.63816 6.43378 5.0623L5.54239 6.14161C4.80395 7.03584 4.36092 7.09128 3.38003 7.72502C2.87028 8.05435 2.54674 8.53764 2.35437 9.10914C2.2043 9.55533 2.28191 9.99637 2.44532 10.4356C2.58164 10.802 2.40919 11.1808 2.21867 11.4982C1.97992 11.8963 1.8473 12.2962 1.81424 12.7545C1.75984 13.507 1.53566 15.3525 1.38128 16.0743C0.928399 18.1898 0.755951 20.5395 0.530949 22.6597L0.449857 23.4239C0.392169 23.9674 0.405103 24.5138 0.444725 25.0616L0.480241 25.5514C0.533002 26.2796 0.657821 26.9751 0.78654 27.6888C0.860857 28.1004 1.00764 28.5083 1.0214 28.9266C1.0214 28.9326 1.02078 28.9386 1.01914 28.9443C0.958166 29.1436 0.826983 29.3872 0.833553 29.61C0.834169 29.6286 0.825341 29.6461 0.809328 29.6558C0.487426 29.8495 0.185849 30.0616 0.0754001 30.4317C0.0037523 30.6722 0.000467588 30.9709 0.0799166 31.2268L0.400997 32.2598C0.451705 32.4232 0.494611 32.6301 0.498923 32.8003L0.526432 33.913C0.534233 34.2298 0.557021 34.5424 0.631132 34.8549L0.955087 36.2227L1.19467 37.3142C1.25112 37.5714 1.32133 37.8224 1.40324 38.078L2.08544 40.2063C2.30551 40.893 2.14148 41.1574 2.06635 41.9035C2.022 42.3437 2.04212 42.7886 2.2585 43.1689C2.46934 43.5392 2.75367 43.8043 3.1698 43.9015C3.1889 43.9061 3.20409 43.9209 3.20799 43.9403L3.44346 45.0936L4.05544 47.5828C4.53358 49.5275 5.24061 51.4573 6.45595 53.0624L7.28986 54.1639L7.91252 55.0301C8.04165 55.2099 9.43991 56.5552 9.68175 56.7535L11.2921 58.0735C11.919 58.5875 12.5637 59.0224 13.2845 59.3818L14.4949 59.9852C15.4107 60.4419 16.3869 60.715 17.4105 60.8395C18.0931 60.9225 18.7356 60.9852 19.4119 60.9786L19.9496 60.9735C22.7951 60.9462 25.3472 60.7074 27.7631 59.0448C28.6528 58.4325 29.4654 57.7718 30.2915 57.0824C30.8199 56.6414 31.2738 56.1698 31.7144 55.6482C31.9211 55.4034 32.1055 55.1635 32.3284 54.9358C32.5407 54.7189 32.6922 54.4675 32.8589 54.2099C33.1892 53.6994 33.5263 53.2231 33.8209 52.6836C34.3637 51.6894 34.8032 50.6725 35.1487 49.592C35.4162 48.7556 35.6815 47.9599 35.833 47.0956L36.468 43.4772C36.471 43.4599 36.4829 43.4457 36.4992 43.4393C37.053 43.2231 37.5053 42.7771 37.689 42.1877C37.8362 41.7151 37.7786 41.2164 37.7026 40.7279C37.7024 40.7265 37.7022 40.7248 37.7022 40.7234C37.6519 40.0187 37.7164 39.3434 37.8135 38.6408L38.1033 36.5446L38.5359 34.2143L38.8771 32.219C39.0159 31.4076 39.0397 30.5822 38.7894 29.7943L38.789 29.7945ZM2.39605 39.343C2.13923 38.6868 1.87275 37.7542 1.74588 37.1938L1.60341 36.5646C1.4944 36.0828 1.38764 35.6197 1.25112 35.1477C1.09428 34.6051 1.05219 34.0579 1.06944 33.4842C1.08175 33.0747 0.994504 32.3276 0.862089 31.9514C0.650635 31.3509 0.311489 30.6032 0.924088 30.1795C0.949544 30.1619 0.984855 30.1706 0.998199 30.1984C1.19179 30.6009 1.5954 30.6621 1.91053 30.9148C1.92613 30.9274 1.93229 30.9486 1.92695 30.968C1.86187 31.2037 1.84216 31.4251 1.82677 31.6753L1.78715 32.3189L1.69846 33.5513C1.66315 34.0425 1.67054 34.5227 1.72268 35.0189C1.77524 35.5193 1.99634 35.9529 2.22032 36.3979C2.2234 36.4041 2.22524 36.4107 2.22565 36.4175L2.26302 37.0102L2.35376 37.9358C2.40118 38.4184 2.46523 38.8564 2.49274 39.3211C2.49603 39.3784 2.41658 39.3963 2.39584 39.343H2.39605ZM36.0508 31.6796C35.928 33.2527 35.5757 34.7891 34.9381 36.2324C34.6764 36.8247 34.2305 37.314 33.7094 37.6666C32.5427 38.4559 30.1063 38.5198 28.7269 38.4665C28.0209 38.439 27.3537 38.4083 26.6693 38.2325C26.0466 38.0728 25.4586 37.8484 24.9704 37.429C24.4915 37.0174 24.1525 36.5453 23.8501 35.9997C23.456 35.2889 23.162 34.5783 22.9177 33.8001C22.5644 32.674 22.2762 31.3068 22.9044 30.2091C23.3431 29.4425 24.156 29.068 25.0082 28.8959C26.0478 28.6859 27.0603 28.5779 28.1207 28.5041C30.0143 28.3722 32.2095 28.4384 34.0685 28.8151C34.3972 28.8817 34.7123 29.0132 34.995 29.1758C35.8804 29.6855 36.1272 30.7029 36.051 31.6796H36.0508ZM4.35394 24.0579L4.84029 23.2422C4.99487 22.9829 5.23876 22.6975 5.23281 22.3667C5.21248 21.2295 4.60892 19.9047 4.56622 18.7436L4.54076 18.0505C4.48821 16.6245 5.37344 15.1806 6.23649 14.0945C6.79982 13.3856 7.35288 12.7044 7.97226 12.0505C8.10344 11.912 8.3073 11.7595 8.4818 11.7183C9.08968 11.5744 10.213 12.0592 12.3964 11.487C13.6649 11.1546 14.863 10.7412 16.0849 10.2688C16.9931 9.91764 17.8993 9.74885 18.8646 9.60912L19.3885 9.53328C20.0963 9.43085 21.5886 9.57017 22.3542 9.66724C23.4812 9.81006 25.0951 10.1932 26.1698 10.551L27.2613 10.9141C27.9864 11.1554 28.6707 11.4215 29.372 11.7405C30.1034 12.0732 30.7977 12.5107 31.3861 13.0606C31.8802 13.5224 32.2448 14.0855 32.6316 14.632C33.1385 15.348 33.4698 16.634 33.5425 17.5064C33.5774 17.9258 33.5819 18.3567 33.5448 18.7807L33.4705 19.6285L33.4302 20.2726C33.3848 21.0009 33.1771 21.3249 33.7131 22.0932C34.0921 22.6363 34.4522 23.15 34.7708 23.7343C34.7716 23.7358 34.7722 23.7372 34.773 23.7386C35.2038 24.712 35.4741 25.7167 35.5425 26.7814L35.6162 27.9293C35.6182 27.9611 35.5909 27.9866 35.5595 27.9825L34.2799 27.8162C34.05 27.7863 33.8188 27.7824 33.6255 27.7554C33.6047 27.7525 33.5893 27.7362 33.5846 27.7158C33.4419 27.078 31.9966 26.1159 31.4914 25.8093C30.747 25.3577 30.4294 25.1914 29.5631 25.218L28.4738 25.2514L27.3937 25.3317L26.5892 25.3744L25.5871 25.415L24.4092 25.4461C24.0517 25.4556 23.7229 25.5821 23.395 25.7116C22.8727 25.9177 22.4026 26.2113 22.0957 26.7006C22.0243 26.8144 21.9598 27.0623 21.9641 27.1866C21.9811 27.6847 22.3846 27.9221 22.835 27.8805L23.4313 27.8253L24.0353 27.7414L24.9062 27.6099L25.3157 27.5483L26.256 27.4139L26.7134 27.3457C27.1197 27.2851 27.5181 27.2348 27.9318 27.1971L28.7745 27.12L29.4186 27.0947C30.0158 27.0712 30.6206 27.24 31.1714 27.4512L31.2596 27.485C31.313 27.5054 31.2964 27.5852 31.2395 27.5825L31.1808 27.5798C30.435 27.546 27.9655 27.5979 27.2498 27.688L24.8922 27.9848C24.3966 28.0472 23.9442 28.2238 23.4675 28.3642C22.8491 28.5462 22.3538 28.9196 21.9666 29.4357C21.6087 29.9128 21.6438 29.7796 20.9099 29.7448L20.1848 29.7106C19.8407 29.6943 19.4872 29.6828 19.1542 29.7166L18.4513 29.7877C18.1411 29.819 17.9834 29.8013 17.7227 29.4707C17.1612 28.7589 16.6199 28.6154 15.7693 28.3685C15.0321 28.1546 14.3081 28.0829 13.5431 28.032L12.0338 27.9316C11.8987 27.9225 11.7542 27.9176 11.6263 27.9182L10.8458 27.9223L9.27896 27.953L8.15004 27.9945C8.11268 27.9959 8.07696 28.0027 8.04247 28.0087C7.98458 28.0188 7.95974 27.9376 8.01311 27.9129C8.39352 27.7377 8.76942 27.5825 9.18124 27.5338L9.79486 27.4615C10.2681 27.4057 10.7503 27.4186 11.228 27.45L11.7957 27.4871C12.0055 27.5007 12.2221 27.5112 12.4257 27.5369L13.4481 27.6655L13.8907 27.7315L14.6815 27.8115C14.9291 27.8366 15.1584 27.8712 15.4068 27.8922C15.8104 27.9262 16.1982 28.0305 16.615 27.991C16.8297 27.9706 17.0494 27.7059 17.0418 27.4842C17.0338 27.2529 16.9531 27.0032 16.8268 26.8208C16.2896 26.0432 15.4403 25.65 14.5035 25.6106C13.8098 25.5813 13.1334 25.5457 12.4372 25.6007L12.0693 25.6298C12.0681 25.6298 12.0669 25.6298 12.0656 25.6298L9.15742 25.6409C8.64829 25.6427 8.20506 25.638 7.75321 25.9405C7.28801 26.2519 6.85771 26.6033 6.46129 27.0073C6.08109 27.3945 5.72654 27.7587 5.48388 28.25C5.4767 28.2647 5.46274 28.275 5.44673 28.2774L4.30714 28.451C3.98482 28.5 3.68181 28.5587 3.34738 28.5701C3.32993 28.5707 3.31228 28.5625 3.30325 28.5474C3.25254 28.4633 3.32008 28.332 3.31618 28.2457C3.24946 26.7581 3.59476 25.3305 4.35353 24.0581L4.35394 24.0579ZM17.3899 32.1604C17.3511 33.4291 17.0206 34.3075 16.5295 35.4548C16.1428 36.3585 15.4458 37.3931 14.6103 37.9323C13.842 38.4277 12.9367 38.6181 12.0305 38.7078L11.2204 38.788C11.2204 38.788 11.2186 38.788 11.2176 38.788L10.2098 38.831C10.0139 38.8395 9.81786 38.8364 9.62242 38.8218L8.57952 38.7441C7.91272 38.6944 7.36069 38.5707 6.7524 38.3107C6.07472 38.0211 5.56333 37.5555 5.18744 36.91C4.26177 35.32 3.75777 33.5252 3.67627 31.6771C3.65081 31.1015 3.78281 30.5776 4.08193 30.1049C4.2437 29.8493 4.46993 29.6787 4.73579 29.5443C5.023 29.3992 5.29624 29.2459 5.61794 29.1682C6.75014 28.8945 7.88727 28.8083 9.05067 28.7428C9.83346 28.6987 10.5659 28.7397 11.3526 28.7502C12.7509 28.7688 14.1221 28.858 15.4567 29.2691C15.827 29.3833 16.1871 29.4965 16.4844 29.7438C17.1838 30.326 17.4704 31.268 17.3901 32.1598L17.3899 32.1604ZM3.00331 43.2534C2.67114 43.0592 2.55659 42.4482 2.59436 42.1415L2.67607 41.4795C2.67895 41.4556 2.72616 41.3757 2.7391 41.3903C2.75203 41.4049 2.79042 41.4542 2.79391 41.4754L2.87233 41.9581L2.94234 42.3828L3.07701 43.2006C3.08379 43.2422 3.03944 43.2744 3.0031 43.2532L3.00331 43.2534ZM27.1353 51.7376L26.2847 52.6318L25.1293 53.7163L24.2983 54.227C24.1041 54.3311 23.9407 54.1648 23.7849 54.0831L23.2821 53.8198C23.0938 53.7212 22.789 53.619 22.7785 53.3431C22.7736 53.2124 22.843 53.0001 22.8922 52.881L23.2037 52.1255C23.325 51.831 23.7859 50.8343 23.2318 50.6618C22.8966 50.5575 22.5471 50.7168 22.2195 50.7302L21.0054 50.7795C20.1423 50.8145 19.2893 50.8205 18.4201 50.7869L17.9734 50.7696L16.9752 50.7362C16.8683 50.7327 16.7909 50.7205 16.6864 50.7885L16.5694 50.8508C16.5554 50.8582 16.5456 50.8716 16.5431 50.8873C16.4992 51.1502 16.5078 51.4243 16.5903 51.6636L16.7997 52.2704L17.089 53.1427C17.1339 53.2784 17.0705 53.4119 17.0418 53.5215C16.9722 53.787 16.7874 53.9045 16.5599 54.031C16.176 54.2443 15.8472 54.1992 15.5394 53.9271L13.2081 51.6376C13.0658 51.4897 12.7569 51.5653 12.8078 50.446C12.8252 50.0631 12.8648 49.6934 12.9346 49.323L13.0328 48.8039C13.0328 48.8039 13.0332 48.802 13.0334 48.8012L13.1461 48.3414C13.1469 48.3379 13.1481 48.3346 13.1498 48.3313L13.2253 48.1761C13.2457 48.1343 13.306 48.1407 13.3189 48.1854C13.3656 48.3476 13.4631 48.4824 13.6433 48.4999C13.9851 48.5331 14.3243 48.4193 14.6679 48.4047L15.3684 48.3746L16.0506 48.3286C16.965 48.2672 16.7609 48.3257 17.5384 48.3674C17.9368 48.3886 18.3021 48.4339 18.6983 48.4968C18.8989 48.5285 19.1099 48.5943 19.3103 48.605C20.7332 48.6819 20.4975 48.5656 21.6728 48.4906C22.247 48.4539 22.8031 48.3859 23.3745 48.4389C24.3589 48.5302 25.3613 48.5108 26.3523 48.497C26.4299 48.496 26.5467 48.3509 26.5522 48.2814C26.5701 48.051 26.1835 48.0098 25.9979 48.0063L24.7705 47.9826C24.7705 47.9826 24.7686 47.9826 24.7678 47.9826L24.2782 47.9469C23.5794 47.896 22.6108 47.8585 21.9325 47.9401C21.7044 47.9675 21.501 47.9987 21.2655 47.9978C21.1405 47.9974 21.0189 48.0368 20.8933 48.0564C20.3493 48.1405 19.7777 48.1497 19.2329 48.0661C19.0489 48.0378 18.8814 47.99 18.6938 47.9935C18.633 47.9948 18.5104 47.9315 18.4499 47.9265L17.02 47.8103C16.7494 47.7882 16.4774 47.7864 16.2064 47.8047L15.6045 47.8453L14.6815 47.8853L14.212 47.9016C13.979 47.9096 13.7573 48.0046 13.4998 47.991C13.4585 47.9888 13.4386 47.9389 13.4655 47.9074C13.733 47.5943 14.0787 47.3876 14.4327 47.1729L14.982 46.8396C15.3306 46.6281 15.7096 46.4666 16.0943 46.3205L17.1167 45.9322L17.9414 45.6661C18.6663 45.4324 19.1263 45.8234 19.3088 45.8411C19.6164 45.8708 19.9898 45.885 20.292 45.8423C20.7736 45.7743 21.3794 45.5231 21.8122 45.6509L22.2733 45.7871L22.5808 45.8827L22.9483 45.9932C23.1957 46.0676 23.4346 46.1626 23.6742 46.2642C24.2511 46.509 24.8276 46.7176 25.3513 47.0752C25.653 47.2813 25.9965 47.4352 26.2424 47.7056L26.574 48.0704C26.6506 48.1547 26.675 48.2612 26.7115 48.3768C26.7417 48.4721 27.0029 48.9403 27.1141 49.2787L27.224 49.6126L27.3254 49.9524C27.434 50.3162 27.4949 50.6698 27.5728 51.0509C27.6103 51.2352 27.3406 51.4363 27.1353 51.7372V51.7376ZM36.269 38.7261L36.1502 39.2403L36.0553 39.7172L35.9235 40.3425L35.724 41.2326L35.6131 41.6961L35.5271 42.0426L35.1356 43.578C34.9402 44.3446 34.5402 44.9982 34.134 45.6661C33.9716 45.9332 33.7926 46.1374 33.5887 46.3709C33.4226 46.5612 33.2658 46.773 33.11 46.9758C32.8847 47.2689 32.6411 47.5168 32.3947 47.7915L32.1133 48.1052C32.1133 48.1052 32.112 48.1067 32.1114 48.1073L31.164 49.0516C30.911 49.3036 30.6454 49.5631 30.3428 49.7369C30.1646 49.8393 30.0022 49.7088 29.8879 49.6157C29.7095 49.4706 29.6579 49.2816 29.6559 49.0456C29.6503 48.4251 29.623 47.6349 29.4553 47.0449L29.3397 46.6385C29.1708 46.0435 28.6432 45.3578 28.1599 44.9841C27.5526 44.5147 27.1589 44.2993 26.5067 43.9351L25.2708 43.2449L24.7354 42.9325C24.4065 42.7406 24.0961 42.5434 23.7984 42.3016L23.5681 42.1145L23.5636 42.1211L22.9664 41.7196C22.9471 41.7132 22.9288 41.7066 22.9134 41.6992C22.5627 41.5339 22.2515 41.4449 21.8541 41.4047C21.8457 41.4039 21.8292 41.4039 21.8292 41.4039L18.0188 41.4268C18.0188 41.4268 18.0183 41.4268 18.0181 41.4268H17.9748V41.4278C17.7213 41.4422 17.3462 41.6114 17.182 41.7435C17.1766 41.7479 17.1707 41.7508 17.1643 41.7524L16.4762 42.1021L15.9418 42.5207C15.276 43.0421 14.1024 43.7447 13.3432 44.1212C12.8813 44.3502 12.4405 44.5775 12.0379 44.8898C11.2358 45.5117 10.7641 46.327 10.5984 47.3287C10.577 47.4579 10.5169 47.6168 10.5093 47.7439C10.4805 48.2208 10.4565 48.6594 10.3171 49.1126C10.3145 49.1215 10.3095 49.1291 10.3028 49.1353C10.1909 49.2375 10.0474 49.3706 9.93097 49.4405C9.75134 49.5483 9.53866 49.3816 9.42923 49.2837L9.21121 49.0885L8.94535 48.8618C8.89054 48.815 8.84106 48.7752 8.79569 48.7404L7.47647 47.6518L5.53377 45.6107C5.53295 45.6098 5.53233 45.609 5.53151 45.6082L5.26319 45.2859C5.08069 45.0668 4.77131 44.2465 4.66599 43.9452L4.36113 43.0733L4.13181 42.3725L4.02301 42.0405C3.98072 41.9115 3.93165 41.7835 3.89573 41.6516L3.61345 40.6113L3.52804 40.3093L3.4024 39.8362L3.30694 39.3943C3.27368 39.2399 3.21661 39.067 3.19423 38.9252L3.08379 38.2224L3.01378 37.6697L2.9485 37.1607L2.81916 36.0344C2.81855 35.9795 2.81608 35.9175 2.80992 35.8406C2.77318 35.379 2.78488 34.919 2.83086 34.4536L2.93885 33.3589C2.94398 33.3067 3.0144 33.2964 3.03534 33.3444C3.05114 33.3809 3.06428 33.4166 3.07352 33.451L3.35991 34.5295C3.57957 35.3569 3.90065 36.0976 4.31063 36.8394C4.6352 37.4261 4.99426 37.9382 5.51139 38.3809C5.60111 38.4578 5.69328 38.5823 5.80024 38.6443C6.18969 38.87 6.582 39.0421 7.01805 39.156C7.76984 39.3527 8.50582 39.4689 9.27608 39.506L9.98271 39.5402C10.1638 39.5489 10.3352 39.5507 10.5126 39.5449L11.622 39.5085C12.3489 39.4846 13.4783 39.237 14.1795 38.9829C14.648 38.8131 15.0496 38.5747 15.4507 38.2806C16.9247 37.1998 17.8541 34.8291 18.3226 33.1076C18.4431 32.6647 18.6954 32.1155 19.1052 31.8783C19.5461 31.6227 20.0454 31.5463 20.5422 31.7435C20.9508 31.9057 21.3049 32.2441 21.4763 32.7237L21.8454 33.756C22.0624 34.3629 22.2768 34.9499 22.5804 35.5177C22.8795 36.0768 23.1786 36.6133 23.533 37.1306C24.0669 37.9102 25.1371 38.5944 26.0271 38.8568C26.5563 39.0128 27.1018 39.1121 27.6645 39.1408C28.507 39.1839 29.3272 39.1762 30.1734 39.1426C31.3962 39.094 32.887 38.8368 33.9983 38.308C34.9574 37.8517 35.4602 37.0339 35.858 36.0883C35.988 35.7792 36.1013 35.5016 36.2015 35.1739L36.5252 34.1167C36.5322 34.094 36.5813 34.0456 36.5959 34.048C36.6176 34.0517 36.6533 34.1004 36.6581 34.1226L36.7948 34.7858C36.8192 34.9048 36.8402 35.0531 36.8461 35.1749L36.872 35.6992C36.8841 35.9437 36.85 36.0566 36.8383 36.1702L36.7361 36.7L36.6184 37.1862L36.5068 37.6683L36.2696 38.7259L36.269 38.7261ZM38.2345 32.7027L38.1672 33.0802L37.8116 34.9328L37.6572 35.7848C37.5848 36.1848 37.5433 36.5797 37.4889 36.9892L37.385 37.7697L37.2793 38.5161L37.1522 39.5851C37.1031 39.9983 37.1089 40.4316 37.153 40.846L37.2466 41.7231C37.2473 41.7285 37.2468 41.7341 37.2458 41.7394C37.1621 42.1283 37.0184 42.5189 36.6509 42.7594C36.6143 42.7833 36.5667 42.754 36.5729 42.7107L36.8814 40.4965L37.1196 38.7294L37.2152 38.0852L37.3017 37.3573L37.3877 36.3548L37.7151 34.6593C37.7379 34.5587 37.7537 34.4573 37.7578 34.3586C37.7987 33.4042 37.7365 32.4694 37.5963 31.5211C37.5878 31.4644 37.4041 30.874 37.2928 30.754C37.2793 30.7394 37.2746 30.7182 37.2828 30.7001C37.4312 30.3738 37.8851 30.1669 38.2409 30.0638C38.267 30.0562 38.2945 30.0711 38.3025 30.097C38.5353 30.8532 38.368 31.9547 38.2345 32.7027Z"/>
  <path id="left-nostril" d="M17.0805 40.2279C16.8426 40.1883 16.5326 40.3573 16.5088 40.6172C16.4958 40.7592 16.7028 40.9144 16.8354 40.9492C17.2673 41.062 17.4853 41.0444 17.6465 41.0496C17.7742 41.0537 17.859 40.9185 17.799 40.8052L17.6432 40.5098C17.5898 40.4089 17.4989 40.333 17.3901 40.2994C17.2895 40.2683 17.1854 40.2454 17.0803 40.2279H17.0805Z"/>
  <path id="right-nostril" d="M22.2711 40.9874L22.9907 40.9585C23.2128 40.9497 23.523 40.73 23.5214 40.502C23.5193 40.1974 23.1619 40.1187 22.9168 40.1282C22.6754 40.1377 22.4467 40.2321 22.2303 40.3691C22.1714 40.4064 22.1272 40.4631 22.1063 40.5295L22.049 40.7106C22.0034 40.8543 22.117 40.9954 22.2668 40.9874C22.2683 40.9874 22.2697 40.9874 22.2711 40.9874Z"/>
  <path id="left-pupil" d="M11.2068 32.6434C10.6148 32.5129 10.2452 32.0552 10.136 31.4814C10.0325 30.9373 10.2789 30.3772 10.7248 30.0392C11.0615 29.7838 11.7166 29.7523 12.0773 29.8996C12.7892 30.1909 13.1458 30.9342 12.9196 31.6912C12.7092 32.3958 11.9564 32.8084 11.2066 32.6432L11.2068 32.6434Z"/>
  <path id="right-pupil" d="M28.4518 32.3589C27.9064 32.6245 27.2874 32.5347 26.8604 32.1639C26.4383 31.7975 26.2572 31.1963 26.4309 30.6388C26.6627 29.894 27.4159 29.5381 28.1642 29.7161C28.739 29.853 29.1348 30.3445 29.21 30.9003C29.2905 31.497 29.0106 32.0866 28.452 32.3587L28.4518 32.3589Z"/>
</svg>
