<svg width="1000" height="1000" viewBox="0 0 1000 1000" fill="none" xmlns="http://www.w3.org/2000/svg">
<path d="M827.911 479.748C827.911 472.751 827.245 463.588 822.747 454.091C820.748 450.093 818.249 446.428 815.083 443.429L823.746 379.454C826.245 361.127 825.246 343.634 824.246 328.473L823.08 306.482C822.414 292.987 821.414 278.493 816.749 263.166C814.917 257.001 812.584 251.67 809.419 244.673C808.586 242.84 807.753 240.841 806.92 238.842C801.089 224.181 794.591 211.019 787.094 198.857L786.261 197.524C783.762 193.359 780.763 188.361 776.432 182.863C775.099 173.201 772.766 162.871 767.768 152.375C760.271 137.048 750.775 122.887 739.446 110.225C719.787 88.4002 701.627 83.4022 690.798 80.57C689.632 80.2367 688.632 80.0701 687.799 79.7369C686.3 78.0709 684.634 75.9051 682.968 73.5727C676.637 64.0764 666.141 50.5816 649.314 41.2519L614.828 22.2593L597.668 13.2628C583.84 6.09894 570.012 1.76729 554.851 0.267874C539.524 -1.23154 528.028 3.93311 521.864 6.59874C521.531 6.76535 521.031 6.93195 520.531 7.09855C515.2 7.43175 510.035 7.43175 504.371 7.09855L486.544 5.76573L472.883 4.09972C455.39 1.93389 424.902 4.09972 406.242 8.76457C396.08 11.2636 386.75 15.5952 378.753 21.2597C371.089 26.7576 362.259 31.0892 350.431 35.2543C328.772 42.7513 310.446 53.2473 294.619 67.0752C286.289 74.4057 280.125 81.7362 274.127 89.0666L260.466 105.56C256.134 110.891 254.301 111.724 246.971 115.89C243.306 118.055 239.141 120.388 234.309 123.387C220.815 132.05 211.152 144.712 205.654 161.039C201.155 174.533 202.655 186.695 204.821 194.359C199.489 204.022 196.491 214.018 195.824 224.847C195.158 235.01 191.826 261.999 189.827 271.496C183.829 299.318 180.997 328.307 178.164 356.129L174.832 387.617C173.833 396.78 173.833 406.61 174.666 418.438L175.166 425.936C176.165 439.097 178.331 451.426 180.33 462.088C180.83 464.421 181.33 466.92 181.996 469.752C176.332 475.416 172.333 482.08 170.168 489.577C167.169 499.407 167.335 510.403 170.334 520.232L175.332 535.726L175.832 552.886C175.832 558.384 176.332 565.881 178.331 573.711L186.994 611.197C188.161 616.028 189.493 620.86 190.993 625.691L201.655 658.345C201.655 659.178 201.322 660.344 201.155 661.844C200.656 664.676 200.156 667.841 199.823 671.673C199.323 677.171 197.657 693.831 206.82 709.992C210.652 716.822 215.483 722.487 221.148 726.818L231.31 769.635C241.307 809.786 254.801 840.274 273.627 865.098L295.785 894.92C300.617 901.75 325.44 924.741 328.772 927.407L353.596 947.566C365.591 957.395 377.587 965.226 390.249 971.557L408.908 980.72C425.735 989.05 444.228 994.548 464.053 996.88C474.216 998.213 485.212 999.212 497.374 999.212H507.37C551.852 998.713 599.167 995.714 645.483 963.893C660.976 953.23 674.971 941.901 686.8 932.072C695.796 924.575 704.126 916.245 712.79 905.915L715.955 902.084C717.454 900.251 718.787 898.585 720.62 896.919C725.785 891.754 729.117 886.59 731.782 882.425L736.614 875.094C740.945 868.597 745.11 862.266 748.942 855.435C758.439 838.109 765.936 820.782 771.767 802.289L772.933 798.79C776.765 786.629 780.93 774.133 783.429 759.806L790.759 717.989C800.256 710.325 807.419 699.996 811.085 688.333C815.25 674.839 814.083 662.51 812.584 654.013V653.18C812.084 645.017 813.084 636.52 814.083 628.69L818.415 597.869L830.411 531.061C833.743 511.569 832.91 494.576 828.078 479.082L827.911 479.748Z" fill="#C69679"/>
<path d="M797.756 489.247C797.09 487.081 795.924 485.415 796.09 482.749C796.424 477.751 796.424 472.42 794.258 467.921C791.426 462.09 782.762 463.59 781.429 462.09C781.096 461.757 780.93 460.424 781.096 459.591L786.428 418.108L792.592 374.791C794.924 358.464 793.591 342.47 792.592 325.977L792.092 318.48L791.592 307.651C791.092 295.655 790.259 283.826 786.594 272.164C784.262 264.501 780.596 257.67 777.598 250.339C772.6 238.011 767.102 226.515 760.271 215.186C756.772 209.522 753.607 204.024 748.942 199.193C747.443 197.527 746.443 195.694 746.11 193.362C744.944 183.865 743.611 174.536 739.446 165.872C733.282 153.211 725.451 141.548 716.122 131.219C694.963 107.728 679.969 113.893 669.14 105.063C664.308 101.064 660.643 96.3994 657.145 91.0681C650.98 82.0716 643.983 74.0748 634.32 68.7435L600.333 50.0841L583.173 41.0876C573.344 35.9229 563.015 32.5909 551.852 31.5913C540.357 30.4251 533.026 37.7556 525.363 38.422C517.532 39.0884 510.035 39.0884 502.371 38.422L482.879 37.0891L469.218 35.4231C455.223 33.5905 428.4 35.7563 414.072 39.4216C408.075 40.921 402.41 43.42 397.412 46.9187C386.083 55.0821 374.255 60.4134 361.093 65.0783C344.266 70.9093 329.106 79.0728 315.777 90.7349C309.28 96.3994 304.282 102.564 298.784 109.061L284.956 125.721C273.627 139.383 266.796 140.382 251.636 150.045C243.805 155.043 238.807 162.54 235.809 171.37C233.476 178.201 234.642 185.032 237.141 191.696C239.307 197.36 236.642 203.191 233.643 208.023C229.977 214.187 227.978 220.351 227.478 227.348C226.645 238.844 223.147 267.333 220.814 278.329C213.817 310.816 211.151 346.969 207.653 379.456L206.32 391.118C205.487 399.448 205.654 407.778 206.32 416.275L206.82 423.772C207.653 434.934 209.485 445.597 211.485 456.593C212.651 462.923 214.817 469.254 215.15 475.585C215.15 475.585 215.15 475.752 215.15 475.918C214.15 478.917 212.151 482.749 212.318 486.081C212.318 486.414 212.318 486.581 211.984 486.747C206.986 489.746 202.322 492.912 200.656 498.743C199.489 502.408 199.489 507.073 200.656 510.905L205.654 526.732C206.487 529.231 207.153 532.396 207.153 535.062L207.653 552.222C207.653 557.053 208.153 561.885 209.319 566.716L214.317 587.708L217.982 604.535C218.815 608.533 219.981 612.365 221.148 616.197L231.643 648.851C234.976 659.347 232.476 663.512 231.31 674.841C230.644 681.672 230.977 688.502 234.309 694.333C237.641 699.998 241.973 704.163 248.304 705.662C248.637 705.662 248.803 705.995 248.97 706.329L252.635 723.988L262.132 762.307C269.462 792.129 280.458 821.784 299.117 846.441L311.946 863.434L321.608 876.762C323.608 879.595 345.099 900.253 348.931 903.252L373.755 923.577C383.418 931.408 393.414 938.072 404.41 943.736L423.069 953.066C437.23 960.063 452.224 964.228 468.051 966.228C478.547 967.56 488.543 968.393 498.873 968.393H507.203C551.019 967.894 590.504 964.228 627.656 938.738C641.317 929.409 653.979 919.246 666.641 908.583C674.804 901.753 681.802 894.589 688.632 886.592C691.798 882.76 694.63 879.095 698.129 875.596C701.461 872.264 703.793 868.432 706.292 864.434C711.457 856.603 716.621 849.273 721.12 840.943C729.45 825.616 736.28 810.122 741.612 793.461C745.777 780.633 749.775 768.471 752.108 755.143L761.937 699.498C761.937 699.498 762.104 698.998 762.437 698.998C770.934 695.666 777.931 688.835 780.763 679.839C783.095 672.509 782.096 664.845 780.93 657.348C780.097 646.519 781.096 636.189 782.596 625.36L787.094 593.206L793.758 557.387L799.089 526.732C801.255 514.237 801.588 501.575 797.756 489.413V489.247ZM236.642 635.856C232.643 625.693 228.645 611.532 226.645 602.869L224.48 593.206C222.814 585.876 221.148 578.712 218.982 571.381C216.483 563.051 215.983 554.721 216.15 545.891C216.316 539.56 214.983 528.065 212.984 522.4C209.652 513.237 204.487 501.742 213.984 495.244C214.317 494.911 214.983 495.244 215.15 495.577C218.149 501.742 224.313 502.741 229.144 506.573C229.311 506.74 229.478 507.073 229.478 507.406C228.478 511.071 228.145 514.403 227.978 518.235L227.312 528.065L225.979 547.057C225.479 554.554 225.479 562.051 226.312 569.549C227.145 577.212 230.477 583.876 233.976 590.707C233.976 590.707 233.976 590.874 233.976 591.04L234.476 600.203L235.809 614.364C236.475 621.862 237.475 628.526 237.974 635.689C237.974 636.522 236.808 636.856 236.475 636.023L236.642 635.856ZM755.606 518.235C753.774 542.393 748.276 566.05 738.446 588.208C734.448 597.371 727.451 604.868 719.454 610.199C701.461 622.361 663.809 623.361 642.65 622.528C631.821 622.028 621.492 621.695 610.996 618.863C601.333 616.364 592.336 613.032 584.839 606.534C577.509 600.203 572.178 593.039 567.513 584.543C561.515 573.547 556.85 562.718 553.185 550.723C547.687 533.396 543.355 512.404 553.018 495.577C559.849 483.749 572.344 478.084 585.506 475.419C601.5 472.253 617.16 470.587 633.487 469.421C662.642 467.422 696.463 468.421 725.285 474.252C730.283 475.252 735.281 477.251 739.612 479.75C753.274 487.581 757.106 503.241 755.939 518.235H755.606ZM266.796 401.114L274.294 388.619C276.626 384.621 280.458 380.289 280.291 375.124C279.958 357.631 270.628 337.306 269.962 319.479L269.629 308.817C268.796 286.992 282.457 264.667 295.785 248.007C304.448 237.178 312.945 226.682 322.608 216.686C324.607 214.52 327.773 212.188 330.438 211.521C339.768 209.355 357.095 216.686 390.748 208.023C410.241 202.858 428.733 196.527 447.559 189.363C461.554 184.032 475.549 181.366 490.376 179.201L498.373 178.034C509.369 176.535 532.36 178.534 544.188 180.034C561.515 182.199 586.505 188.03 602.999 193.528L619.826 199.026C630.988 202.691 641.484 206.856 652.313 211.688C663.642 216.853 674.305 223.517 683.301 232.013C690.965 239.177 696.463 247.84 702.46 256.171C710.291 267.166 715.455 286.992 716.455 300.32C716.955 306.818 717.121 313.315 716.455 319.812L715.289 332.807L714.622 342.637C713.956 353.799 710.79 358.797 718.954 370.626C724.785 378.956 730.283 386.786 735.281 395.783C741.945 410.777 746.11 426.104 747.11 442.598L748.276 460.258C748.276 460.258 747.943 461.091 747.443 461.091L727.784 458.592C724.285 458.092 720.62 458.092 717.621 457.592C717.288 457.592 717.121 457.259 716.955 456.926C714.789 447.096 692.464 432.269 684.634 427.604C673.138 420.607 668.307 418.108 654.979 418.441L638.152 418.941L621.492 420.107L609.163 420.773L593.669 421.44L575.51 421.939C570.012 421.939 564.847 424.105 559.849 425.938C551.852 429.103 544.522 433.601 539.857 441.099C538.691 442.765 537.691 446.596 537.858 448.596C538.191 456.259 544.355 459.925 551.352 459.258L560.515 458.425L569.845 457.092L583.34 455.093L589.671 454.094L604.165 452.094L611.162 451.095C617.493 450.095 623.491 449.429 629.988 448.762L642.983 447.596L652.98 447.263C662.143 446.93 671.472 449.429 679.969 452.761L681.302 453.261C681.302 453.261 681.802 454.76 680.969 454.76H680.136C668.64 454.26 630.488 454.927 619.493 456.426L583.173 460.924C575.51 461.924 568.512 464.589 561.182 466.755C551.686 469.587 544.022 475.252 538.024 483.249C532.526 490.579 533.026 488.58 521.697 488.08L510.535 487.58C505.204 487.247 499.706 487.081 494.708 487.58L483.879 488.747C479.047 489.247 476.715 488.913 472.716 483.915C464.053 472.92 455.723 470.754 442.561 466.922C431.232 463.59 420.07 462.59 408.241 461.757L384.917 460.258C382.751 460.258 380.586 460.091 378.586 460.091H366.591L342.434 460.591L325.107 461.257C325.107 461.257 323.941 461.257 323.441 461.424C322.608 461.424 322.108 460.258 322.941 459.925C328.772 457.259 334.603 454.927 340.934 454.094L350.431 452.927C357.761 452.094 365.092 452.261 372.589 452.761L381.419 453.261C384.584 453.427 387.916 453.594 391.081 454.094L406.909 456.093L413.739 457.092L425.901 458.259C429.733 458.592 433.232 459.258 437.064 459.425C443.228 459.925 449.225 461.591 455.723 460.924C459.055 460.591 462.387 456.593 462.387 453.094C462.387 449.595 461.054 445.763 459.055 442.931C450.725 430.936 437.73 424.938 423.236 424.272C412.573 423.772 402.077 423.272 391.415 424.272L385.75 424.772H340.768C332.937 424.938 326.107 424.772 319.109 429.603C311.946 434.435 305.281 439.766 299.117 445.93C293.286 451.928 287.788 457.426 284.123 465.089C284.123 465.256 283.79 465.422 283.623 465.589L266.13 468.255C261.132 469.088 256.467 469.921 251.302 470.087C250.969 470.087 250.803 470.087 250.636 469.754C249.803 468.421 250.969 466.422 250.803 465.089C249.803 442.265 255.134 420.273 266.796 400.781V401.114ZM467.718 525.566C467.052 545.058 462.054 558.553 454.39 576.213C448.392 590.041 437.73 606.034 424.735 614.198C412.906 621.862 398.912 624.694 384.917 626.193L372.422 627.359L356.928 628.026C353.929 628.026 350.93 628.026 347.932 628.026L331.771 626.86C321.442 626.027 312.945 624.194 303.615 620.196C293.12 615.697 285.289 608.533 279.458 598.704C265.13 574.213 257.467 546.724 256.134 518.402C255.801 509.572 257.8 501.575 262.465 494.245C264.964 490.246 268.462 487.747 272.628 485.581C277.126 483.415 281.291 480.916 286.289 479.75C303.782 475.585 321.275 474.252 339.268 473.253C351.264 472.586 362.593 473.253 374.754 473.253C396.246 473.586 417.405 474.919 438.063 481.25C443.728 483.082 449.392 484.748 453.89 488.58C464.719 497.577 469.051 512.071 467.885 525.732L467.718 525.566ZM245.971 695.999C240.807 693 239.141 683.671 239.64 678.839L240.973 668.677C240.973 668.677 241.806 667.011 241.973 667.344C242.139 667.51 242.806 668.343 242.806 668.677L243.972 676.174L244.972 682.671L246.971 695.166C246.971 695.166 246.471 696.333 245.805 695.999H245.971ZM617.993 826.282L604.832 839.943L587.005 856.604L574.177 864.434C571.178 866.1 568.679 863.434 566.18 862.268L558.35 858.27C555.517 856.77 550.686 855.104 550.519 850.939C550.519 848.94 551.519 845.608 552.352 843.775L557.183 832.113C559.016 827.615 566.18 812.287 557.683 809.622C552.519 807.956 547.187 810.455 542.023 810.621L523.363 811.454C510.035 811.954 496.874 812.121 483.545 811.454L476.715 811.121L461.387 810.621C459.721 810.621 458.555 810.455 456.889 811.454L455.057 812.454C455.057 812.454 454.723 812.787 454.723 812.954C454.057 816.952 454.224 821.284 455.39 824.949L458.555 834.279L463.053 847.607C463.72 849.773 462.72 851.772 462.387 853.438C461.387 857.437 458.389 859.269 454.89 861.268C448.892 864.6 443.894 863.934 439.229 859.602L403.243 824.449C401.078 822.117 396.246 823.283 397.079 806.123C397.412 800.292 397.912 794.628 399.078 788.797L400.578 780.8L402.244 773.802L403.41 771.47C403.41 771.47 404.576 770.97 404.909 771.47C405.576 773.969 407.075 775.968 409.907 776.301C415.239 776.801 420.403 775.135 425.735 774.802L436.564 774.302L447.06 773.636C461.221 772.636 458.055 773.636 470.051 774.302C476.215 774.635 481.879 775.302 487.877 776.301C491.043 776.801 494.208 777.801 497.373 777.967C519.365 779.134 515.7 777.301 533.859 776.135C542.689 775.635 551.352 774.469 560.182 775.302C575.343 776.635 590.837 776.468 606.164 776.135C607.331 776.135 609.163 773.969 609.33 772.803C609.663 769.304 603.665 768.638 600.833 768.638L581.841 768.305L574.343 767.805C563.514 766.972 548.687 766.472 538.191 767.805C534.692 768.305 531.527 768.638 527.862 768.638C525.862 768.638 524.03 769.304 522.197 769.471C513.867 770.804 505.037 770.97 496.54 769.471C493.708 768.971 491.043 768.305 488.21 768.305C487.211 768.305 485.378 767.305 484.378 767.305L462.387 765.472C458.222 765.139 454.057 765.139 449.892 765.472L440.562 766.139L426.401 766.805L419.237 767.138C415.572 767.138 412.24 768.804 408.241 768.471C407.575 768.471 407.242 767.638 407.742 767.138C411.907 762.307 417.238 759.141 422.736 755.809L431.232 750.645C436.564 747.479 442.395 744.98 448.392 742.648L464.22 736.65L476.881 732.485C488.044 728.82 495.208 734.818 498.04 735.151C502.705 735.651 508.536 735.817 513.201 735.151C520.698 734.151 530.027 730.319 536.691 732.152L543.855 734.318L548.52 735.817L554.185 737.483C558.016 738.649 561.682 740.149 565.347 741.648C574.177 745.48 583.173 748.646 591.17 754.143C595.835 757.309 601.166 759.641 604.832 763.806L609.996 769.471C611.162 770.804 611.496 772.47 612.162 774.136C612.662 775.635 616.66 782.799 618.326 787.964L619.992 793.128L621.492 798.293C623.158 803.957 624.157 809.289 625.324 815.12C625.823 817.952 621.825 821.117 618.66 825.616L617.993 826.282ZM758.938 626.36L757.106 634.19L755.606 641.521L753.607 651.183L750.608 664.845L748.942 672.009L747.609 677.34L741.612 700.997C738.613 712.826 732.449 722.822 726.118 733.152C723.619 737.317 720.786 740.315 717.788 743.981C715.289 746.98 712.79 750.145 710.457 753.31C706.959 757.809 703.293 761.64 699.461 765.806L695.13 770.637L680.469 785.131C676.637 788.963 672.472 792.962 667.807 795.627C665.141 797.127 662.476 795.127 660.81 793.795C657.978 791.629 657.311 788.63 657.311 784.965C657.311 775.468 656.811 763.306 654.146 754.31L652.313 748.146C649.647 738.983 641.651 728.487 634.153 722.656C624.824 715.492 618.66 712.16 608.663 706.495L589.671 695.833L581.341 691.001C576.343 688.002 571.511 685.004 566.846 681.338L563.348 678.506L554.185 672.508C553.851 672.508 553.685 672.342 553.352 672.175C548.02 669.676 543.189 668.343 537.025 667.677H536.691L477.881 668.01H477.215C473.383 668.177 467.552 670.842 465.053 672.842C465.053 672.842 464.886 672.842 464.719 672.842L454.057 678.173L445.893 684.67C435.564 692.667 417.571 703.496 405.742 709.328C398.579 712.826 391.748 716.325 385.584 721.156C373.255 730.653 365.925 743.314 363.426 758.642C363.092 760.641 362.093 763.14 362.093 764.973C361.593 772.303 361.26 778.967 359.094 785.964C359.094 785.964 359.094 786.298 358.927 786.298C357.261 787.797 354.929 789.963 353.263 790.962C350.431 792.628 347.265 790.129 345.599 788.63L342.267 785.631L338.102 782.133C337.269 781.466 336.436 780.8 335.77 780.3L315.444 763.64L285.456 732.319L281.291 727.32C278.459 723.988 273.627 711.327 272.128 706.662L267.463 693.334L263.964 682.505L262.298 677.34C261.632 675.341 260.965 673.341 260.299 671.342L255.967 655.349L254.635 650.684L252.635 643.353L251.136 636.522C250.636 634.19 249.803 631.524 249.47 629.359L247.804 618.53L246.804 610.033L245.805 602.203L243.805 584.876C243.805 584.043 243.805 583.043 243.805 581.877C243.306 574.713 243.472 567.716 244.139 560.552L245.805 543.725C245.805 543.725 246.971 542.726 247.304 543.559C247.471 544.059 247.804 544.725 247.97 545.225L252.469 561.718C255.801 574.38 260.799 585.876 267.13 597.204C272.128 606.201 277.626 614.031 285.622 620.862C286.955 622.028 288.455 624.027 290.121 624.86C296.118 628.359 302.116 631.025 308.947 632.691C320.609 635.689 331.938 637.522 343.767 638.022L354.596 638.522C357.428 638.522 360.093 638.522 362.759 638.522L379.919 638.022C391.081 637.689 408.575 633.857 419.404 630.025C426.568 627.359 432.898 623.694 439.063 619.196C461.721 602.536 476.048 566.217 483.379 539.727C485.211 532.896 489.21 524.566 495.374 520.901C502.205 516.902 509.869 515.736 517.532 518.902C523.863 521.401 529.361 526.565 531.86 533.896L537.524 549.723C540.856 559.053 544.189 568.049 548.853 576.712C553.518 585.376 558.016 593.539 563.514 601.536C571.678 613.531 588.171 624.027 601.999 628.026C610.163 630.358 618.493 632.024 627.323 632.357C640.318 633.024 652.98 632.857 665.974 632.357C684.8 631.691 707.791 627.693 724.951 619.529C739.779 612.532 747.443 600.037 753.607 585.376C755.606 580.544 757.439 576.379 758.938 571.381L763.936 555.221C763.936 555.221 764.769 554.055 765.103 554.221C765.436 554.221 765.936 555.054 766.102 555.387L768.268 565.55C768.601 567.383 768.934 569.715 769.101 571.548L769.434 579.545C769.601 583.377 769.101 585.043 768.934 586.709L767.435 594.872L765.602 602.369L763.936 609.7L760.271 626.027L758.938 626.36ZM789.26 533.896L788.26 539.727L782.762 568.216L780.43 581.377C779.264 587.542 778.597 593.539 777.764 599.87L776.098 611.865L774.432 623.361L772.433 639.855C771.6 646.185 771.767 652.849 772.433 659.18L773.932 672.675C773.932 672.675 773.932 672.842 773.932 673.008C772.6 679.006 770.434 685.004 764.769 688.669C764.27 689.002 763.437 688.669 763.603 688.002L768.435 654.016L772.1 626.86L773.599 617.03L774.932 605.868L776.265 590.54L781.263 564.551C781.596 563.051 781.929 561.385 781.929 559.886C782.596 545.225 781.596 530.897 779.43 516.236C779.43 515.403 776.431 506.24 774.765 504.407C774.599 504.241 774.432 503.907 774.765 503.574C777.098 498.576 784.095 495.411 789.593 493.745C789.926 493.745 790.426 493.745 790.593 494.245C794.258 505.907 791.592 522.733 789.593 534.229L789.26 533.896Z" fill="#101315"/>
<path d="M463.053 649.523C459.388 648.857 454.556 651.523 454.223 655.521C454.056 657.687 457.222 660.019 459.221 660.686C465.885 662.352 469.217 662.185 471.716 662.185C473.715 662.185 475.048 660.186 474.049 658.353L471.716 653.855C470.883 652.356 469.55 651.189 467.884 650.69C466.385 650.19 464.719 649.857 463.053 649.523Z" fill="#101315"/>
<path d="M543.021 661.182L554.184 660.682C557.682 660.682 562.347 657.184 562.347 653.685C562.347 649.02 556.849 647.854 553.017 648.02C549.352 648.02 545.687 649.686 542.355 651.686C541.522 652.186 540.689 653.185 540.522 654.185L539.689 657.017C539.023 659.183 540.689 661.349 543.021 661.349V661.182Z" fill="#101315"/>
<path d="M372.422 533.063C363.259 531.064 357.594 524.067 355.928 515.237C354.262 506.907 358.094 498.243 365.091 493.079C370.256 489.08 380.419 488.747 385.917 490.913C396.912 495.411 402.41 506.74 398.911 518.402C395.746 529.231 384.084 535.562 372.422 533.063Z" fill="#101315"/>
<path d="M638.317 528.564C629.987 532.562 620.324 531.229 613.827 525.565C607.33 519.9 604.497 510.737 607.163 502.074C610.662 490.579 622.324 485.247 633.819 487.913C642.649 490.079 648.813 497.576 649.98 506.073C651.146 515.236 646.981 524.232 638.317 528.397V528.564Z" fill="#101315"/>
</svg>
